# xmcd
#
# Track frame offsets:
#	150
#	18067
#	45320
#	62141
#	79779
#	95753
#	110417
#	129322
#	156788
#	172599
#	207994
#	225575
#	264879
#	284044
#
# Disc length: 4068 seconds
#
# Revision: 0
# Processed by: cddbd v1.5.2PL0 Copyright (c) Steve Scherf et al.
# Submitted via: EZCDAudioConverter 2.1.7.1
#
DISCID=ad0fe20e
DTITLE=V/A - Sherwood At The Controls V1
DYEAR=1900
DGENRE=
TTITLE0=Medium Medium     - Hungry, So Angry
TTITLE1=Maximum Joy - Let It Take You There
TTITLE2=Nadjma      - Some Day My Caliph Will Come
TTITLE3=Mark Stewart and The Maffia - Learning To Cope With Cowardice [Flexi Ver
TTITLE3=sion]
TTITLE4=The Fall - Middle Mass
TTITLE5=Gardening By Moonlight - Strange Clues
TTITLE6=Shriekback - Mistah Linn He Dead
TTITLE7=Voice Of Authority Ft. Congo Ashanti Roy - Running (Feeling Wild)
TTITLE8=The Slits - Man Next Door
TTITLE9=Annie Anxiety (aka Little Annie) - Third Gear Kills
TTITLE10=Prince Far I - Nuclear Weapon
TTITLE11=Singers and Players - Reaching The Bad Man
TTITLE12=African Head Charge - In A Trap
TTITLE13=Vivien Goldman - Private Armies Dub
EXTD=
EXTT0=
EXTT1=
EXTT2=
EXTT3=
EXTT4=
EXTT5=
EXTT6=
EXTT7=
EXTT8=
EXTT9=
EXTT10=
EXTT11=
EXTT12=
EXTT13=
PLAYORDER=
